<?xml version="1.0" encoding="UTF-8"?>
<svg id="_레이어_1" data-name="레이어 1" xmlns="http://www.w3.org/2000/svg" viewBox="0 0 1920 90">
  <defs>
    <style>
      .cls-1 {
        fill: #fff;
        stroke: #000;
        stroke-miterlimit: 10;
      }

      .cls-2 {
        fill: #000;
        stroke-width: 0px;
      }

      .cls-3 {
        opacity: .91;
      }
    </style>
  </defs>
  <g class="cls-3">
    <path class="cls-1" d="M1027.5,58c-.54-1.38-1.23-2.65-2.05-3.81,1.83-1.05,3.07-3.02,3.07-5.28V11.88c0-3.36-2.73-6.09-6.09-6.09h-6.48c-1.88,0-3.56.86-4.68,2.2-1.12-1.34-2.8-2.2-4.68-2.2h-10.89c-2.64,0-4.97,1.7-5.79,4.2l-1.85,5.68-1.73-5.6c-.79-2.55-3.15-4.29-5.82-4.29h-10.89c-2.17,0-4.07,1.14-5.15,2.84-2.69-2.25-6.01-3.44-9.68-3.44-3.26,0-6.1.9-8.44,2.68-2.35-1.78-5.18-2.68-8.44-2.68-4.09,0-7.75,1.46-10.58,4.21-.43.41-.81.86-1.18,1.31-.13-.14-.26-.27-.39-.39-3.13-3.01-7.55-4.53-13.15-4.53h-15.35c-3.36,0-6.09,2.73-6.09,6.09v37.02c0,.67.11,1.32.31,1.92-.36,1.08-.42,2.25-.14,3.38l6.28,25.58c.67,2.72,3.11,4.64,5.91,4.64h5.38c1.67,0,3.21-.68,4.33-1.8,1.11,1.12,2.65,1.8,4.33,1.8h5.42c2.81,0,5.25-1.92,5.92-4.65l.29-1.18c.17.21.34.44.52.64,1.6,1.78,3.5,3.16,5.66,4.12,2.16.96,4.49,1.45,6.92,1.45s4.75-.48,6.91-1.44c1.48-.65,2.82-1.51,4.04-2.55.95,2.13,3.08,3.61,5.56,3.61h4.48c2.08,0,3.92-1.05,5.02-2.64.81.9,1.79,1.61,2.93,2.12.78.35,1.62.52,2.47.52h5.91c.52,0,1.01-.08,1.5-.21.5.13,1.01.21,1.55.21h14.63c.91,0,1.77-.2,2.54-.56.77.36,1.63.56,2.54.56h7.64c2.63,0,5.1-.43,7.35-1.27,2.37-.89,4.44-2.21,6.16-3.91,1.73-1.71,3.07-3.79,4-6.18.88-2.29,1.33-4.82,1.33-7.52s-.45-5.27-1.34-7.55ZM946.36,27.72h.02c1.02,0,2-.26,2.87-.73-.05.06-.09.12-.14.18-1.08,1.36-2,2.54-2.76,3.55-.76-1.01-1.67-2.19-2.75-3.55-.05-.07-.11-.14-.16-.2.88.48,1.88.74,2.92.74ZM909.83,46.68v-2.38c.15.84.33,1.63.52,2.36h-.3c-.07,0-.15,0-.22.01ZM935.36,47.73c-.59.26-1.16.56-1.71.89-.08-.08-.15-.16-.23-.24-.16-1.8-1.1-3.49-2.67-4.54-.54-.36-.98-.84-1.35-1.46-.45-.76-.73-1.53-.87-2.35,0-.03-.82-4.65-.82-4.65-.19-1.11-.49-2.19-.92-3.23.04-.04.08-.08.11-.13.8,1.22,1.75,2.52,2.86,3.92,4.09,5.14,5.83,7.6,6.57,8.76.43.67.86,1.42,1.29,2.23-.77.22-1.53.48-2.27.81ZM942.41,68.06s-.06.07-.08.09c-.01,0-.07,0-.08,0-.02-.02-.03-.04-.06-.06-.12-.15-.52-.77-.52-2.53s.39-2.38.52-2.54c.02-.03.04-.05.05-.06.01,0,.07,0,.09,0,.02.02.05.05.08.09.12.15.52.76.52,2.51s-.4,2.36-.52,2.51ZM958.8,46.67c-1.91,0-3.61.88-4.73,2.26.78-1.65,1.56-3.1,2.35-4.3,1.11-1.71,3.31-4.63,6.51-8.67.21-.26.4-.51.6-.77v11.48h-4.73ZM993.21,54.37c.89-.44,1.66-1.08,2.24-1.88.24.33.51.62.81.9v14.61h-3.06v-13.63Z"/>
    <path class="cls-2" d="M917.57,80.62c-1.07,0-2-.75-2.23-1.8l-2.11-9.76-2.07,9.75c-.22,1.05-1.16,1.81-2.23,1.81h-5.38c-1.05,0-1.97-.72-2.22-1.74l-6.28-25.58c-.17-.68-.01-1.4.42-1.95.43-.55,1.1-.87,1.8-.87h4.7c1.07,0,1.99.74,2.23,1.78l1.89,8.33,1.73-8.29c.22-1.06,1.15-1.82,2.24-1.82h6.51c1.09,0,2.02.76,2.24,1.83l1.71,8.38,1.96-8.44c.24-1.03,1.16-1.77,2.22-1.77h4.51c.7,0,1.36.32,1.8.87.43.55.59,1.27.42,1.95l-6.21,25.58c-.25,1.02-1.17,1.75-2.22,1.75h-5.42Z"/>
    <path class="cls-2" d="M901.96,52.76l4.21,18.54,3.87-18.54h6.51l3.8,18.66,4.33-18.66h4.51l-6.21,25.58h-5.42l-4.36-20.16-4.29,20.16h-5.38l-6.28-25.58h4.7Z"/>
    <path class="cls-2" d="M942.28,81c-1.89,0-3.7-.38-5.37-1.12-1.67-.74-3.14-1.81-4.38-3.19-1.22-1.36-2.19-3.01-2.88-4.91-.68-1.87-1.02-3.97-1.02-6.23s.34-4.36,1.02-6.23c.68-1.89,1.64-3.54,2.85-4.9,1.23-1.38,2.7-2.46,4.39-3.2,1.68-.74,3.49-1.12,5.38-1.12s3.7.37,5.39,1.11c1.7.75,3.19,1.82,4.43,3.2,1.22,1.36,2.19,3.01,2.88,4.91.68,1.88,1.02,3.97,1.02,6.23s-.35,4.37-1.04,6.25c-.7,1.9-1.67,3.54-2.89,4.89-1.24,1.38-2.72,2.45-4.41,3.19-1.68.74-3.49,1.12-5.38,1.12ZM942.28,59.14c-1.26,0-2.23.47-3.04,1.47-.91,1.12-1.37,2.78-1.37,4.94s.46,3.82,1.37,4.94c.82,1,1.78,1.47,3.04,1.47s2.24-.47,3.07-1.48c.92-1.12,1.38-2.77,1.38-4.93s-.46-3.81-1.38-4.93c-.83-1.01-1.8-1.48-3.07-1.48Z"/>
    <path class="cls-2" d="M942.28,78.71c-1.58,0-3.06-.31-4.44-.92-1.38-.61-2.58-1.49-3.61-2.63-1.03-1.14-1.84-2.53-2.43-4.16-.59-1.63-.88-3.45-.88-5.46s.29-3.82.88-5.45c.59-1.63,1.39-3.02,2.41-4.16,1.02-1.14,2.22-2.02,3.61-2.63,1.39-.61,2.88-.92,4.46-.92s3.07.31,4.48.92c1.4.62,2.62,1.49,3.65,2.63,1.03,1.14,1.84,2.53,2.43,4.16.59,1.63.88,3.45.88,5.45s-.3,3.82-.9,5.46c-.6,1.63-1.42,3.02-2.44,4.16-1.03,1.14-2.24,2.02-3.63,2.63-1.39.61-2.88.92-4.46.92ZM942.28,74.24c1.96,0,3.57-.77,4.83-2.31,1.27-1.54,1.9-3.67,1.9-6.38s-.63-4.83-1.9-6.38c-1.27-1.54-2.88-2.31-4.83-2.31s-3.56.77-4.81,2.31c-1.25,1.54-1.88,3.67-1.88,6.38s.63,4.83,1.88,6.38c1.25,1.54,2.86,2.31,4.81,2.31Z"/>
    <path class="cls-2" d="M973.69,80.62c-.32,0-.64-.07-.93-.2-1.23-.55-2.15-1.55-2.67-2.91-.36-.96-.64-2.08-.84-3.43l-.42-2.91c-.09-.61-.27-1.11-.53-1.47h0s-.18-.07-.59-.07h-2.15v8.7c0,1.26-1.02,2.28-2.28,2.28h-4.48c-1.26,0-2.28-1.02-2.28-2.28v-25.58c0-1.26,1.02-2.28,2.28-2.28h10.61c3.35,0,5.96.87,7.75,2.59,1.81,1.75,2.73,4.1,2.73,6.99,0,1.99-.62,3.71-1.84,5.11-.37.42-.77.81-1.19,1.18.01.02.02.04.03.06.53.91.88,1.88,1.05,2.9l.56,3.18c.14.83.41,1.58.85,2.32.4.68.9,1.22,1.52,1.63.84.56,1.21,1.6.92,2.56s-1.18,1.62-2.19,1.62h-5.91ZM969.29,60.82c.81,0,1.17-.14,1.25-.2.09-.08.12-.34.12-.57,0-.27-.04-.44-.12-.51-.19-.16-.6-.25-1.13-.25h-3.85v1.53h3.73Z"/>
    <path class="cls-2" d="M958.8,78.34v-25.58h10.61c2.76,0,4.81.65,6.17,1.96,1.35,1.31,2.03,3.08,2.03,5.34,0,1.43-.43,2.63-1.28,3.61-.85.98-1.91,1.76-3.16,2.33.78.38,1.36.9,1.75,1.56.39.67.64,1.37.77,2.13l.56,3.2c.18,1.08.55,2.11,1.13,3.08.58.98,1.32,1.77,2.22,2.37h-5.91c-.68-.3-1.17-.85-1.47-1.64-.3-.79-.54-1.77-.71-2.95l-.41-2.9c-.15-1-.47-1.84-.96-2.5-.49-.66-1.3-1-2.43-1h-4.44v10.98h-4.48ZM969.4,57.01h-6.13v6.09h6.02c1.28,0,2.21-.26,2.78-.79.58-.53.87-1.28.87-2.26s-.31-1.73-.94-2.26c-.63-.53-1.49-.79-2.6-.79Z"/>
    <path class="cls-2" d="M982.64,80.62c-1.26,0-2.28-1.02-2.28-2.28v-25.58c0-1.26,1.02-2.28,2.28-2.28h4.48c1.26,0,2.28,1.02,2.28,2.28v19.04h7.87c1.26,0,2.28,1.02,2.28,2.28v4.25c0,1.26-1.02,2.28-2.28,2.28h-14.63Z"/>
    <path class="cls-2" d="M982.64,78.34v-25.58h4.48v21.33h10.16v4.25h-14.63Z"/>
    <path class="cls-2" d="M1002.35,80.62c-1.26,0-2.28-1.02-2.28-2.28v-25.58c0-1.26,1.02-2.28,2.28-2.28h7.64c2.17,0,4.19.35,6.01,1.03,1.86.7,3.49,1.73,4.83,3.05,1.34,1.33,2.39,2.95,3.12,4.82.71,1.84,1.08,3.91,1.08,6.17s-.36,4.3-1.08,6.14c-.73,1.89-1.78,3.52-3.12,4.84-1.34,1.33-2.96,2.35-4.83,3.05-1.82.68-3.84,1.03-6.01,1.03h-7.64ZM1009.73,71.8c2.05,0,3.55-.49,4.57-1.49.99-.98,1.5-2.58,1.5-4.77s-.5-3.79-1.5-4.77c-1.02-1-2.51-1.49-4.57-1.49h-.61v12.51h.61Z"/>
    <path class="cls-2" d="M1002.35,78.34v-25.58h7.64c1.91,0,3.64.3,5.21.88,1.57.59,2.91,1.44,4.03,2.54,1.12,1.1,1.98,2.44,2.59,4.03.61,1.58.92,3.36.92,5.34s-.31,3.73-.92,5.32c-.61,1.59-1.48,2.94-2.59,4.04-1.12,1.1-2.46,1.95-4.03,2.54s-3.3.88-5.21.88h-7.64ZM1009.73,74.09c2.66,0,4.71-.71,6.17-2.14,1.45-1.43,2.18-3.56,2.18-6.39s-.73-4.97-2.18-6.39c-1.45-1.43-3.51-2.14-6.17-2.14h-2.9v17.08h2.9Z"/>
    <path class="cls-2" d="M918.82,51.19c-.32,0-.64-.07-.93-.2-1.53-.68-2.68-1.94-3.33-3.64-.49-1.29-.88-2.89-1.16-4.75l-.6-4.2c-.16-1.06-.49-1.94-.97-2.59-.25-.34-.81-.51-1.67-.51h-4.14v13.62c0,1.26-1.02,2.28-2.28,2.28h-6.48c-1.26,0-2.28-1.02-2.28-2.28V11.88c0-1.26,1.02-2.28,2.28-2.28h15.35c4.58,0,8.12,1.17,10.51,3.47,2.42,2.33,3.64,5.48,3.64,9.38,0,2.63-.81,4.89-2.41,6.73-.7.8-1.48,1.53-2.34,2.17.2.26.38.53.55.81.7,1.2,1.17,2.5,1.4,3.86l.81,4.61c.21,1.3.67,2.54,1.35,3.7.66,1.13,1.49,2.01,2.51,2.69.84.56,1.21,1.6.92,2.56-.29.96-1.18,1.62-2.19,1.62h-8.55ZM912.45,24.57c1.71,0,2.31-.38,2.49-.55.12-.11.51-.46.51-1.58,0-.94-.29-1.3-.55-1.52-.48-.4-1.25-.61-2.29-.61h-6.59v4.25h6.43Z"/>
    <path class="cls-2" d="M897.26,48.91V11.88h15.35c3.99,0,6.97.94,8.93,2.83,1.96,1.89,2.94,4.46,2.94,7.73,0,2.07-.62,3.81-1.85,5.23-1.23,1.42-2.76,2.54-4.57,3.38,1.12.54,1.97,1.3,2.53,2.26.56.96.93,1.99,1.12,3.08l.82,4.63c.25,1.56.8,3.05,1.63,4.46.83,1.42,1.91,2.56,3.21,3.43h-8.55c-.98-.44-1.69-1.23-2.12-2.37-.44-1.14-.78-2.57-1.03-4.27l-.6-4.19c-.22-1.45-.68-2.66-1.39-3.62-.71-.96-1.88-1.44-3.51-1.44h-6.42v15.9h-6.48ZM912.61,18.03h-8.88v8.82h8.71c1.85,0,3.19-.38,4.03-1.14.83-.76,1.25-1.85,1.25-3.27s-.45-2.5-1.36-3.27c-.91-.76-2.16-1.14-3.76-1.14Z"/>
    <path class="cls-2" d="M1000.38,51.19c-1.26,0-2.28-1.02-2.28-2.28v-16.24l-5.4,16.93c-.3.95-1.18,1.59-2.18,1.59h-5.28c-1,0-1.89-.65-2.18-1.61l-4.95-16.09v15.42c0,1.26-1.02,2.28-2.28,2.28h-6.21c-1.26,0-2.28-1.02-2.28-2.28V11.88c0-1.26,1.02-2.28,2.28-2.28h10.89c1,0,1.89.65,2.18,1.61l5.28,17.04,5.56-17.07c.31-.94,1.18-1.58,2.17-1.58h10.89c1.26,0,2.28,1.02,2.28,2.28v37.02c0,1.26-1.02,2.28-2.28,2.28h-6.21Z"/>
    <path class="cls-2" d="M969.62,48.91V11.88h10.89l7.41,23.9,7.79-23.9h10.89v37.02h-6.21v-30.93l-9.85,30.93h-5.28l-9.42-30.6v30.6h-6.21Z"/>
    <rect class="cls-2" x="1013.67" y="9.6" width="11.05" height="41.59" rx="2.28" ry="2.28"/>
    <path class="cls-2" d="M1015.95,48.91V11.88h6.48v37.02h-6.48Z"/>
    <path class="cls-2" d="M946.18,51.96c-2.03,0-2.95-2.12-3.29-2.92-1.09-2.49-2.22-4.64-3.35-6.4-1.15-1.79-3.43-4.84-6.79-9.07-2.23-2.82-3.75-5.15-4.62-7.13-.91-2.07-1.38-4.18-1.38-6.28,0-3.23,1.09-5.93,3.24-8.03,2.13-2.08,4.8-3.13,7.92-3.13,2.49,0,4.61.69,6.31,2.04.74.59,1.46,1.32,2.13,2.19.67-.86,1.38-1.59,2.13-2.19,1.7-1.35,3.83-2.04,6.31-2.04,3.13,0,5.79,1.07,7.93,3.17,2.15,2.11,3.23,4.8,3.23,7.99,0,2.1-.46,4.21-1.36,6.27-.87,1.98-2.39,4.32-4.64,7.14-3.29,4.14-5.55,7.16-6.73,8.97-1.15,1.76-2.28,3.95-3.38,6.49-.35.8-1.26,2.92-3.32,2.92h-.35ZM940.97,19.95c-1.01,0-1.78.3-2.44.94-.64.62-.93,1.39-.93,2.44,0,.83.18,1.64.56,2.49.42.95,1.25,2.21,2.45,3.73,2.24,2.82,3.73,4.81,4.54,6.07.4.62.8,1.31,1.19,2.06.41-.78.82-1.49,1.24-2.14.83-1.27,2.3-3.23,4.49-6,1.22-1.52,2.04-2.77,2.46-3.72.37-.85.55-1.67.55-2.49,0-1.02-.3-1.79-.94-2.43-.65-.64-1.42-.94-2.43-.94-.73,0-1.28.16-1.69.49-.56.45-1.11,1.19-1.64,2.23-.39.76-1.17,1.25-2.03,1.25h0c-.85,0-1.64-.48-2.03-1.24-.54-1.04-1.09-1.79-1.66-2.24-.41-.33-.97-.49-1.69-.49Z"/>
    <path class="cls-2" d="M961.12,13.8c-1.7-1.67-3.81-2.51-6.33-2.51-1.97,0-3.6.51-4.89,1.54-1.29,1.03-2.47,2.59-3.54,4.68-1.08-2.09-2.27-3.65-3.56-4.68-1.29-1.03-2.92-1.54-4.89-1.54-2.52,0-4.63.83-6.33,2.49-1.7,1.66-2.55,3.79-2.55,6.39,0,1.79.39,3.58,1.18,5.36.79,1.78,2.23,3.99,4.32,6.63,3.42,4.31,5.73,7.39,6.93,9.25,1.2,1.86,2.37,4.1,3.52,6.73.44,1.03.84,1.54,1.2,1.54h.35c.37,0,.78-.51,1.22-1.54,1.15-2.68,2.34-4.95,3.56-6.83,1.22-1.88,3.51-4.93,6.86-9.15,2.11-2.64,3.55-4.85,4.33-6.63.78-1.78,1.17-3.57,1.17-5.36,0-2.57-.85-4.69-2.55-6.37ZM956.63,26.74c-.5,1.13-1.42,2.54-2.76,4.22-2.13,2.69-3.59,4.63-4.37,5.82-.78,1.2-1.53,2.65-2.27,4.35-.28.65-.54.98-.78.98h-.22c-.23,0-.48-.33-.76-.98-.73-1.67-1.48-3.1-2.24-4.28-.76-1.18-2.23-3.15-4.41-5.89-1.33-1.68-2.25-3.09-2.75-4.22-.5-1.13-.75-2.27-.75-3.41,0-1.66.54-3.02,1.63-4.07,1.08-1.06,2.43-1.58,4.03-1.58,1.25,0,2.29.33,3.11.98.82.65,1.58,1.65,2.27,2.98.68-1.33,1.43-2.32,2.25-2.98.82-.65,1.86-.98,3.11-.98,1.6,0,2.95.53,4.03,1.6,1.08,1.07,1.63,2.42,1.63,4.05,0,1.14-.25,2.28-.74,3.41Z"/>
  </g>
</svg>