<?xml version="1.0" encoding="UTF-8"?>
<svg id="_레이어_1" data-name="레이어 1" xmlns="http://www.w3.org/2000/svg" viewBox="0 0 1920 100">
  <defs>
    <style>
      .cls-1 {
        fill: #fff;
        stroke: #000;
        stroke-miterlimit: 10;
      }

      .cls-2 {
        fill: #000;
      }

      .cls-2, .cls-3 {
        stroke-width: 0px;
      }

      .cls-3 {
        fill: red;
      }
    </style>
  </defs>
  <path class="cls-1" d="M1041.58,65.71c-.65-1.67-1.49-3.2-2.47-4.61,2.22-1.27,3.71-3.65,3.71-6.39V9.97c0-4.06-3.3-7.36-7.36-7.36h-7.83c-2.28,0-4.31,1.03-5.66,2.66-1.35-1.62-3.38-2.66-5.66-2.66h-13.16c-3.19,0-6.01,2.05-7,5.08l-2.24,6.87-2.1-6.77c-.95-3.08-3.8-5.18-7.03-5.18h-13.16c-2.62,0-4.92,1.37-6.22,3.44-3.25-2.72-7.26-4.16-11.7-4.16-3.94,0-7.37,1.09-10.2,3.24-2.84-2.15-6.27-3.24-10.2-3.24-4.94,0-9.36,1.76-12.78,5.09-.51.5-.98,1.03-1.42,1.58-.16-.16-.32-.32-.47-.47-3.78-3.64-9.13-5.48-15.9-5.48h-18.56c-4.06,0-7.36,3.29-7.36,7.36v44.75c0,.81.14,1.59.38,2.32-.44,1.3-.5,2.72-.17,4.09l7.59,30.91c.81,3.29,3.76,5.6,7.15,5.6h6.5c2.02,0,3.88-.82,5.23-2.18,1.35,1.36,3.21,2.18,5.23,2.18h6.55c3.4,0,6.35-2.32,7.15-5.62l.35-1.42c.21.26.41.53.63.77,1.93,2.15,4.24,3.82,6.84,4.98,2.61,1.16,5.42,1.75,8.36,1.75s5.74-.59,8.35-1.74c1.78-.79,3.41-1.83,4.88-3.08,1.15,2.57,3.72,4.36,6.72,4.36h5.41c2.52,0,4.74-1.26,6.07-3.19.98,1.09,2.16,1.95,3.54,2.56.94.42,1.96.63,2.99.63h7.14c.62,0,1.22-.1,1.81-.25.6.16,1.22.25,1.87.25h17.69c1.1,0,2.13-.25,3.07-.68.93.43,1.97.68,3.07.68h9.23c3.18,0,6.17-.52,8.88-1.54,2.86-1.08,5.37-2.67,7.45-4.72,2.09-2.06,3.71-4.58,4.83-7.47,1.07-2.76,1.61-5.82,1.61-9.08s-.54-6.37-1.61-9.12ZM943.51,29.12h.02c1.23,0,2.42-.32,3.47-.88-.06.07-.11.14-.17.22-1.31,1.65-2.41,3.07-3.33,4.29-.92-1.22-2.02-2.64-3.32-4.29-.07-.08-.13-.16-.19-.24,1.06.58,2.27.9,3.53.9ZM899.36,52.03v-2.87c.18,1.02.39,1.97.63,2.86h-.37c-.09,0-.18,0-.27.01ZM930.22,53.31c-.72.32-1.4.68-2.07,1.07-.09-.1-.19-.2-.28-.29-.19-2.18-1.33-4.22-3.23-5.49-.65-.43-1.18-1.01-1.63-1.76-.55-.92-.89-1.85-1.05-2.84,0-.03-.99-5.62-.99-5.62-.22-1.35-.6-2.65-1.11-3.91.05-.05.09-.1.14-.15.97,1.47,2.11,3.04,3.46,4.74,4.94,6.22,7.05,9.19,7.94,10.58.52.81,1.04,1.72,1.56,2.69-.93.26-1.85.58-2.74.98ZM938.74,77.87s-.07.08-.09.11c-.02,0-.09,0-.1,0-.02-.02-.04-.05-.07-.08-.15-.18-.62-.93-.62-3.06s.48-2.88.63-3.07c.03-.03.05-.06.07-.08.01,0,.09,0,.1,0,.02.03.06.06.09.11.15.18.62.92.62,3.03s-.48,2.86-.62,3.04ZM958.55,52.02c-2.31,0-4.37,1.06-5.72,2.73.94-2,1.89-3.74,2.83-5.2,1.34-2.07,4-5.6,7.87-10.48.25-.32.49-.62.73-.93v13.88h-5.72ZM1000.14,61.32c1.07-.53,2.01-1.3,2.71-2.27.29.4.62.76.98,1.09v17.66h-3.69v-16.47Z"/>
  <path class="cls-2" d="M908.72,93.05c-1.3,0-2.42-.91-2.7-2.18l-2.55-11.8-2.51,11.79c-.27,1.27-1.4,2.19-2.7,2.19h-6.5c-1.27,0-2.38-.87-2.68-2.1l-7.59-30.91c-.2-.82-.01-1.69.51-2.36.52-.67,1.32-1.06,2.17-1.06h5.68c1.29,0,2.41.89,2.69,2.15l2.29,10.07,2.09-10.02c.27-1.28,1.39-2.2,2.7-2.2h7.87c1.31,0,2.44.92,2.7,2.21l2.06,10.13,2.36-10.2c.29-1.25,1.4-2.14,2.69-2.14h5.46c.85,0,1.65.39,2.17,1.05.52.67.71,1.53.51,2.36l-7.5,30.91c-.3,1.24-1.41,2.11-2.68,2.11h-6.55Z"/>
  <path class="cls-2" d="M889.85,59.38l5.09,22.41,4.68-22.41h7.87l4.59,22.55,5.23-22.55h5.46l-7.5,30.92h-6.55l-5.27-24.37-5.18,24.37h-6.5l-7.59-30.92h5.68Z"/>
  <path class="cls-2" d="M938.59,93.51c-2.29,0-4.47-.46-6.49-1.35-2.01-.89-3.79-2.19-5.29-3.86-1.48-1.64-2.65-3.63-3.48-5.93-.82-2.26-1.23-4.8-1.23-7.53s.42-5.27,1.23-7.53c.83-2.29,1.99-4.28,3.44-5.92,1.48-1.67,3.27-2.97,5.31-3.87,2.03-.9,4.22-1.35,6.5-1.35s4.47.45,6.52,1.34c2.05.9,3.86,2.2,5.35,3.86,1.48,1.64,2.65,3.64,3.48,5.93.82,2.27,1.23,4.8,1.23,7.53s-.42,5.28-1.26,7.55c-.85,2.29-2.02,4.28-3.49,5.91-1.5,1.67-3.29,2.96-5.33,3.86-2.03.9-4.22,1.35-6.5,1.35ZM938.59,67.09c-1.52,0-2.69.56-3.68,1.78-1.1,1.35-1.66,3.36-1.66,5.97s.56,4.61,1.65,5.97c.99,1.21,2.15,1.78,3.68,1.78s2.71-.57,3.71-1.79c1.11-1.35,1.67-3.35,1.67-5.95s-.56-4.61-1.67-5.95c-1-1.22-2.18-1.79-3.71-1.79Z"/>
  <path class="cls-2" d="M938.59,90.75c-1.91,0-3.7-.37-5.36-1.11-1.67-.74-3.12-1.8-4.36-3.18-1.24-1.38-2.22-3.05-2.93-5.02-.71-1.97-1.07-4.17-1.07-6.59s.36-4.62,1.07-6.59c.71-1.97,1.68-3.64,2.91-5.02,1.23-1.38,2.68-2.44,4.36-3.18,1.68-.74,3.48-1.11,5.39-1.11s3.71.37,5.41,1.11c1.7.74,3.17,1.8,4.41,3.18,1.24,1.38,2.22,3.05,2.93,5.02.71,1.97,1.07,4.17,1.07,6.59s-.36,4.62-1.09,6.59c-.73,1.97-1.71,3.64-2.95,5.02-1.24,1.38-2.71,2.44-4.39,3.18-1.68.74-3.48,1.11-5.39,1.11ZM938.59,85.34c2.36,0,4.31-.93,5.84-2.8,1.53-1.86,2.3-4.43,2.3-7.71s-.77-5.84-2.3-7.71c-1.53-1.86-3.48-2.8-5.84-2.8s-4.3.93-5.82,2.8c-1.52,1.86-2.27,4.43-2.27,7.71s.76,5.84,2.27,7.71c1.52,1.86,3.45,2.8,5.82,2.8Z"/>
  <path class="cls-2" d="M976.55,93.05c-.39,0-.77-.08-1.12-.24-1.49-.66-2.6-1.88-3.23-3.51-.44-1.16-.77-2.52-1.02-4.15l-.5-3.52c-.11-.74-.33-1.34-.65-1.77h0s-.22-.09-.71-.09h-2.6v10.51c0,1.52-1.24,2.76-2.76,2.76h-5.41c-1.52,0-2.76-1.24-2.76-2.76v-30.91c0-1.52,1.24-2.76,2.76-2.76h12.82c4.05,0,7.21,1.05,9.37,3.13,2.19,2.11,3.3,4.95,3.3,8.45,0,2.41-.75,4.49-2.23,6.18-.44.51-.93.98-1.44,1.42.01.02.03.05.04.07.64,1.1,1.07,2.27,1.27,3.51l.68,3.84c.16,1.01.5,1.91,1.02,2.8.49.83,1.09,1.47,1.84,1.97,1.01.67,1.46,1.93,1.11,3.1s-1.42,1.96-2.64,1.96h-7.14ZM971.23,69.12c.97,0,1.42-.17,1.51-.24.1-.09.14-.42.14-.68,0-.32-.05-.53-.15-.62-.24-.2-.72-.31-1.36-.31h-4.65v1.85h4.51Z"/>
  <path class="cls-2" d="M958.55,90.29v-30.92h12.82c3.33,0,5.82.79,7.46,2.36,1.64,1.58,2.45,3.73,2.45,6.46,0,1.73-.52,3.18-1.55,4.36-1.03,1.18-2.3,2.12-3.82,2.82.94.45,1.64,1.08,2.11,1.89.47.8.78,1.66.93,2.57l.68,3.87c.21,1.3.67,2.55,1.36,3.73.7,1.18,1.59,2.14,2.68,2.86h-7.14c-.82-.36-1.41-1.02-1.77-1.98-.36-.95-.65-2.14-.86-3.57l-.5-3.5c-.18-1.21-.57-2.22-1.16-3.02-.59-.8-1.57-1.2-2.93-1.2h-5.36v13.27h-5.41ZM971.37,64.51h-7.41v7.37h7.27c1.55,0,2.67-.32,3.36-.95.7-.64,1.05-1.55,1.05-2.73s-.38-2.09-1.13-2.73c-.76-.64-1.81-.95-3.14-.95Z"/>
  <path class="cls-2" d="M987.37,93.05c-1.52,0-2.76-1.24-2.76-2.76v-30.91c0-1.52,1.24-2.76,2.76-2.76h5.41c1.52,0,2.76,1.24,2.76,2.76v23.02h9.51c1.52,0,2.76,1.24,2.76,2.76v5.14c0,1.52-1.24,2.76-2.76,2.76h-17.69Z"/>
  <path class="cls-2" d="M987.37,90.29v-30.92h5.41v25.78h12.27v5.14h-17.68Z"/>
  <path class="cls-2" d="M1011.19,93.05c-1.52,0-2.76-1.24-2.76-2.76v-30.91c0-1.52,1.24-2.76,2.76-2.76h9.23c2.62,0,5.07.42,7.27,1.25,2.25.85,4.21,2.09,5.83,3.69,1.62,1.61,2.89,3.57,3.77,5.83.86,2.22,1.3,4.73,1.3,7.45s-.44,5.19-1.3,7.43c-.88,2.28-2.15,4.25-3.77,5.86-1.62,1.6-3.58,2.84-5.83,3.69-2.2.83-4.64,1.24-7.27,1.24h-9.23ZM1020.1,82.39c2.48,0,4.29-.59,5.52-1.8,1.2-1.18,1.81-3.12,1.81-5.76s-.61-4.58-1.81-5.76c-1.23-1.21-3.04-1.8-5.52-1.8h-.74v15.12h.74Z"/>
  <path class="cls-2" d="M1011.19,90.29v-30.92h9.23c2.3,0,4.4.36,6.3,1.07,1.89.71,3.52,1.74,4.87,3.07,1.35,1.33,2.39,2.95,3.14,4.87.74,1.91,1.11,4.06,1.11,6.45s-.37,4.51-1.11,6.43c-.74,1.93-1.79,3.55-3.14,4.89-1.35,1.33-2.97,2.36-4.87,3.07s-3.99,1.07-6.3,1.07h-9.23ZM1020.1,85.15c3.21,0,5.7-.86,7.46-2.59,1.76-1.73,2.64-4.3,2.64-7.73s-.88-6-2.64-7.73c-1.76-1.73-4.24-2.59-7.46-2.59h-3.5v20.64h3.5Z"/>
  <path class="cls-2" d="M910.23,57.48c-.39,0-.77-.08-1.12-.24-1.85-.82-3.24-2.34-4.02-4.4-.6-1.56-1.07-3.5-1.4-5.74l-.73-5.08c-.19-1.28-.59-2.34-1.17-3.13-.3-.41-.98-.62-2.02-.62h-5.01v16.46c0,1.52-1.24,2.76-2.76,2.76h-7.83c-1.52,0-2.76-1.24-2.76-2.76V9.97c0-1.52,1.24-2.76,2.76-2.76h18.56c5.54,0,9.82,1.41,12.71,4.19,2.92,2.81,4.4,6.62,4.4,11.33,0,3.17-.98,5.91-2.92,8.13-.84.97-1.79,1.85-2.83,2.62.24.31.46.64.66.98.85,1.45,1.42,3.02,1.69,4.66l.98,5.57c.26,1.58.8,3.07,1.63,4.47.8,1.36,1.8,2.42,3.04,3.25,1.01.67,1.46,1.93,1.11,3.1-.35,1.16-1.43,1.96-2.64,1.96h-10.33ZM902.53,25.31c2.06,0,2.79-.46,3.01-.66.15-.14.61-.56.61-1.91,0-1.13-.35-1.58-.66-1.84-.58-.49-1.51-.74-2.76-.74h-7.97v5.14h7.77Z"/>
  <path class="cls-2" d="M884.17,54.72V9.97h18.56c4.83,0,8.42,1.14,10.79,3.42,2.37,2.28,3.55,5.4,3.55,9.34,0,2.5-.75,4.61-2.24,6.32-1.49,1.71-3.33,3.07-5.53,4.08,1.36.66,2.38,1.57,3.06,2.73.68,1.16,1.13,2.4,1.35,3.72l.99,5.59c.31,1.89.96,3.69,1.97,5.4,1.01,1.71,2.3,3.09,3.88,4.15h-10.33c-1.18-.53-2.04-1.48-2.57-2.86-.53-1.38-.94-3.1-1.25-5.17l-.72-5.07c-.26-1.75-.82-3.21-1.68-4.38-.86-1.16-2.27-1.74-4.24-1.74h-7.77v19.22h-7.83ZM902.73,17.41h-10.73v10.66h10.53c2.24,0,3.86-.46,4.87-1.38,1.01-.92,1.51-2.24,1.51-3.95s-.55-3.03-1.64-3.95c-1.1-.92-2.61-1.38-4.54-1.38Z"/>
  <path class="cls-2" d="M1008.8,57.48c-1.52,0-2.76-1.24-2.76-2.76v-19.63l-6.52,20.47c-.36,1.14-1.43,1.92-2.63,1.92h-6.38c-1.21,0-2.28-.79-2.64-1.95l-5.99-19.45v18.64c0,1.52-1.24,2.76-2.76,2.76h-7.5c-1.52,0-2.76-1.24-2.76-2.76V9.97c0-1.52,1.24-2.76,2.76-2.76h13.16c1.21,0,2.28.79,2.64,1.94l6.38,20.59,6.72-20.63c.37-1.14,1.43-1.91,2.62-1.91h13.16c1.52,0,2.76,1.24,2.76,2.76v44.75c0,1.52-1.24,2.76-2.76,2.76h-7.5Z"/>
  <path class="cls-2" d="M971.62,54.72V9.97h13.16l8.95,28.89,9.41-28.89h13.16v44.75h-7.5V17.34l-11.91,37.38h-6.38l-11.38-36.98v36.98h-7.5Z"/>
  <rect class="cls-2" x="1024.86" y="7.21" width="13.35" height="50.27" rx="2.76" ry="2.76"/>
  <path class="cls-2" d="M1027.62,54.72V9.97h7.83v44.75h-7.83Z"/>
  <path class="cls-3" d="M943.3,58.41c-2.46,0-3.56-2.57-3.98-3.53-1.32-3.01-2.68-5.61-4.04-7.73-1.39-2.16-4.15-5.85-8.21-10.96-2.7-3.41-4.53-6.23-5.58-8.62-1.11-2.5-1.67-5.05-1.67-7.59,0-3.91,1.32-7.17,3.92-9.7,2.58-2.51,5.8-3.79,9.57-3.79,3.01,0,5.57.83,7.63,2.46.9.71,1.76,1.6,2.58,2.64.81-1.04,1.67-1.93,2.57-2.64,2.06-1.63,4.62-2.46,7.63-2.46,3.78,0,7,1.29,9.58,3.83,2.59,2.55,3.91,5.8,3.91,9.66,0,2.54-.55,5.09-1.65,7.58-1.05,2.4-2.88,5.22-5.61,8.63-3.97,5-6.71,8.65-8.13,10.84-1.39,2.13-2.76,4.77-4.08,7.84-.42.97-1.52,3.53-4.01,3.53h-.42ZM937,19.73c-1.22,0-2.15.36-2.94,1.13-.77.75-1.13,1.69-1.13,2.94,0,1,.22,1.98.67,3,.51,1.15,1.51,2.67,2.96,4.51,2.71,3.41,4.51,5.81,5.49,7.34.49.76.97,1.59,1.44,2.49.49-.94.99-1.8,1.5-2.58,1-1.54,2.78-3.91,5.43-7.25,1.47-1.84,2.47-3.35,2.97-4.5.45-1.03.67-2.01.67-3.02,0-1.24-.36-2.17-1.14-2.93-.79-.78-1.72-1.14-2.93-1.14-.88,0-1.55.19-2.05.59-.68.54-1.34,1.44-1.98,2.69-.47.92-1.42,1.51-2.45,1.51h0c-1.03,0-1.98-.58-2.45-1.49-.65-1.25-1.32-2.16-2.01-2.71-.5-.4-1.17-.59-2.05-.59Z"/>
  <path class="cls-3" d="M961.35,12.29c-2.06-2.02-4.61-3.04-7.65-3.04-2.38,0-4.35.62-5.91,1.86-1.56,1.24-2.99,3.13-4.27,5.66-1.31-2.53-2.74-4.41-4.31-5.66-1.56-1.24-3.53-1.86-5.91-1.86-3.04,0-5.59,1-7.65,3-2.06,2-3.08,4.58-3.08,7.73,0,2.16.48,4.32,1.43,6.47.95,2.15,2.69,4.83,5.22,8.02,4.13,5.21,6.92,8.93,8.37,11.18,1.45,2.25,2.87,4.96,4.26,8.13.54,1.24,1.02,1.86,1.45,1.86h.42c.45,0,.94-.62,1.48-1.86,1.39-3.23,2.83-5.99,4.31-8.26,1.48-2.27,4.24-5.96,8.29-11.05,2.55-3.19,4.29-5.86,5.24-8.02.94-2.15,1.41-4.31,1.41-6.47,0-3.11-1.03-5.67-3.08-7.7ZM955.93,27.93c-.6,1.37-1.71,3.07-3.33,5.1-2.58,3.25-4.34,5.59-5.28,7.04-.94,1.45-1.85,3.2-2.74,5.26-.34.79-.65,1.19-.94,1.19h-.27c-.27,0-.58-.4-.92-1.19-.89-2.02-1.79-3.74-2.71-5.18-.92-1.43-2.7-3.81-5.33-7.12-1.61-2.03-2.72-3.73-3.32-5.1-.61-1.37-.91-2.74-.91-4.12,0-2,.65-3.64,1.96-4.92,1.31-1.28,2.93-1.91,4.87-1.91,1.51,0,2.77.4,3.76,1.19,1,.79,1.91,1.99,2.74,3.6.82-1.61,1.73-2.81,2.72-3.6,1-.79,2.25-1.19,3.76-1.19,1.94,0,3.56.64,4.87,1.93,1.31,1.29,1.96,2.92,1.96,4.9,0,1.38-.3,2.75-.9,4.12Z"/>
</svg>