<?xml version="1.0" encoding="UTF-8"?>
<svg id="_레이어_2" data-name="레이어 2" xmlns="http://www.w3.org/2000/svg" viewBox="0 0 150 150">
  <defs>
    <style>
      .cls-1 {
        fill: #000;
        stroke-width: 0px;
      }
    </style>
  </defs>
  <g>
    <path class="cls-1" d="M48.99,27.22c.31-.08.36.14.47.28,1.56,1.9,3.11,3.8,4.67,5.7.14.17.27.34.43.48.18.17.34.1.43-.11.22-.57.25-1.09-.22-1.62-1.17-1.31-2.29-2.67-3.42-4-.48-.56-.95-1.13-1.45-1.68-.41-.46-.79-.95-1.32-1.28-.21-.13-.39-.3-.33-.66,1.67.14,3.35.11,5.03.13.43,0,.86,0,1.29,0,.39,0,.64.15.64.6,0,.33.07.66.17.99.19-.84.06-1.68.02-2.52-.01-.24-.19-.31-.45-.33-2.73-.21-5.46-.38-8.2-.29-.35.01-.73.02-1.08-.15.07-.37.33-.57.55-.76,1.12-.98,2.08-2.1,3.11-3.16.86-.89,1.75-1.73,2.75-2.46.46-.34.4-.98-.08-1.26-.2-.12-.36,0-.5.11-.37.27-.76.54-1.1.84-2.44,2.13-5.33,3.53-8.18,5.01-.16.09-.33.22-.49.04-.14-.15-.13-.35-.02-.52,1.54-2.48,2.58-5.26,4.51-7.51.58-.68,1.11-1.4,1.64-2.12.33-.45.27-.57-.21-.97-.4-.34-.6-.09-.82.2-1.17,1.51-2.35,3.02-3.51,4.54-.58.76-1.25,1.44-1.9,2.14-.85.91-1.82,1.72-2.5,2.78-.11.17-.26.38-.52.3-.24-.08-.14-.31-.15-.48-.08-1.14.17-2.27.18-3.41.02-2.84.28-5.66.49-8.49.02-.3.15-.69-.12-.87-.39-.26-.88-.28-1.34-.23-.31.04-.3.35-.33.59-.11.76-.19,1.53-.31,2.29-.31,1.92-.53,3.85-.92,5.75-.21,1.02-.27,2.06-.16,3.11.05.46-.2.94-.32,1.41-.41-.02-.49-.33-.64-.6-.34-.61-.53-1.3-1-1.85-.32-.37-.21-.93-.44-1.38-1.04-2.06-2.02-4.16-3.02-6.24-.27-.56-.48-1.14-.76-1.68-.24-.46-.48-.45-1.17-.14-.46.21-.25.49-.15.75.28.72.57,1.43.89,2.13.67,1.47,1.12,2.99,1.46,4.57.27,1.26.52,2.54,1.02,3.74.14.34.02.66.04.98-.35.1-.4-.19-.52-.33-.81-.93-1.69-1.79-2.64-2.58-1.64-1.37-3.14-2.86-4.37-4.62-.25-.35-.52-.69-.79-1.02-.42-.5-.57-.49-1,0-.23.25-.25.47-.05.73.4.51.77,1.05,1.2,1.53.93,1.05,1.54,2.3,2.15,3.54.37.74.76,1.47,1.24,2.15.2.29.33.64.56,1.11-.58-.15-.98-.26-1.38-.37-2.01-.57-4.02-1.14-6.09-1.48-.57-.09-1.13-.28-1.7-.43-.3-.08-.38-.28-.24-.57.24-.49.46-.98.71-1.51-.37-.01-.35.26-.43.42-.33.65-.67,1.31-.97,1.98-.25.56-.19.67.39.85.71.21,1.42.4,2.13.6,1.51.41,3,.91,4.56,1.22.04.31-.17.45-.39.54-1.68.68-3.05,1.84-4.54,2.82-1.31.87-2.6,1.76-3.9,2.64-.1.07-.23.19-.32.17-.77-.17-.65.41-.68.82-.03.33.02.67.04,1.12,2.9-1.72,5.45-3.82,8.26-5.55-.33.73-.88,1.28-1.45,1.79-.69.61-1.36,1.23-1.77,2.07-.16.32-.48.47-.72.68-.56.49-.75,1.25-1.39,1.67-.15.1-.18.38-.29.56-.42.71-1.03,1.33-1.15,2.2,0,.03-.03.06-.06.07-.96.33-1.09,1.25-1.44,2.01-.09.19-.13.46-.38.47-.32.02-.36-.28-.45-.5-.21-.52-.38-1.05-.09-1.6.09-.17.13-.33.02-.52-.3-.52-.14-1.02.1-1.49.2-.39.3-.8.33-1.24.07-1.19.33-2.37.23-3.58-.03-.32.07-.68.19-.99.15-.41.23-.82.19-1.26-.03-.34.02-.7.24-.97.65-.82.88-1.82,1.27-2.76.58-1.43,1.13-2.86,1.88-4.22.12-.21.23-.44.28-.68.17-.77.4-1.48,1.17-1.89.16-.09.22-.36.32-.55.28-.56.87-.75,1.31-1.13,1.07-.92,2.34-1.61,3.15-2.82.14-.21.36-.33.6-.41.2-.07.38-.14.51-.36.36-.63.97-.71,1.61-.66,1.04.08,2.79-.54,3.51-1.29.38-.4.83-.55,1.34-.4.33.1.58.09.86-.11.36-.25.8-.24,1.16-.09.97.43,1.99.33,2.99.43,1.38.13,2.75.36,4.1.66.49.11.98.12,1.45-.09.62-.29,1.15-.14,1.59.33.32.36.71.57,1.16.71.21.06.44.14.55.32.48.85,1.43,1.14,2.09,1.77.21.21.46.28.75.31.9.08,1.6.45,1.86,1.39.08.32.32.42.57.55.59.31.86.84.71,1.46-.1.46.03.77.27,1.1.59.81,1.05,1.74,2.14,2.07.4.12.59.54.58.97,0,.4.09.7.44.95.34.25.34.66.25,1.02-.24.96-.07,1.88.11,2.82.23,1.24.21,2.51.27,3.77.03.53.12,1.05.34,1.52.39.85.45,1.71.17,2.6-.07.24-.13.47-.09.72.06.42-.14.75-.34,1.11-.7,1.28-1.26,2.61-.86,4.12.24.89-.28,1.59-.57,2.35-.07.18-.3.3-.52.37-.3.09-.53,0-.48-.33.11-.77-.49-1.46-.2-2.24.05-.14-.06-.31-.19-.4-.36-.25-.38-.6-.33-.99.01-.12.02-.28-.04-.36-.67-.8-.68-1.93-1.41-2.71-.25-.27-.16-.69-.37-1.02-.64-1.05-1.2-2.14-1.79-3.21-.09-.16-.19-.32-.15-.56Z"/>
    <path class="cls-1" d="M48.25,51.95c.47.29.3.86.57,1.22.52-.41.76-1.06.48-1.73-.24-.56-.12-1.02.15-1.49.35-.6.66-1.24,1.22-1.79.32.31.32.67.25,1.02-.08.43-.11.85.06,1.27.1.26.1.55,0,.82-.12.3-.15.6-.08.91.1.49-.02.93-.27,1.32-.19.3-.3.59-.29.94,0,.18,0,.43-.11.53-.51.48-.25,1.1-.35,1.65-.03.16-.01.3.11.43.45.46.53,1.02.41,1.63-.02.09-.06.23-.02.27.78.79.21,1.91.7,2.77.06.1.12.26.08.35-.4,1.03.23,2.12-.2,3.15-.04.11-.07.25-.04.36.58,1.73.08,3.42-.19,5.13-.17,1.1-.26,2.22-.39,3.33,0,.03,0,.07,0,.09-.49.81-.41,1.76-.67,2.63-.33,1.08-.75,2.12-1.07,3.19-.66,2.15-1.55,4.19-2.7,6.14-.52.88-1.25,1.66-1.51,2.71-.11.46-.61.64-1.01.88-.2-.26-.06-.44.04-.61.37-.64.72-1.29,1.12-1.91.73-1.14,1.21-2.41,1.81-3.61.92-1.82,1.24-3.83,1.94-5.72-.18-.91.4-1.69.5-2.57.08-.74.03-1.56.41-2.27.08-.14.03-.36.03-.54,0-.15-.09-.36-.02-.45.49-.61.36-1.4.31-2.01-.06-.81.39-1.63-.06-2.41.28-.95-.48-1.93.1-2.86-.19-.82-.07-1.68-.23-2.48-.11-.58-.37-1.1-.05-1.67.07-.12.06-.24-.07-.31-.15-.08-.23.04-.28.15-.09.19-.21.4-.22.6-.03.54-.16,1.03-.47,1.47-.15.21-.12.47-.11.72.01.32-.05.62-.19.9-.2.39-.34.79-.28,1.24.02.14,0,.32-.08.45-.72,1.26-.77,2.74-1.39,4.03-.57,1.18-.87,2.49-1.43,3.65-.63,1.3-.91,2.72-1.62,3.99-.36.64-.57,1.41-.76,2.15-.35,1.39-.85,2.75-.96,4.2-.04.43-.03.85.03,1.28.05.35.14.74-.27.95-.26-.1-.2-.31-.22-.48-.15-2.22-.1-4.4.66-6.54.95-2.66,2.04-5.26,2.91-7.94.38-1.16,1.05-2.29.83-3.61-.01-.06-.01-.15.02-.18.67-.55.3-1.47.74-2.1.15-.21.09-.48.11-.72.02-.34.02-.69.23-.98.14-.19.2-.41.12-.61-.11-.28.08-.79-.25-.81-.46-.02-.21.46-.27.73-.04.18-.08.39-.19.51-.44.43-.66,1.05-1.06,1.44-1.37,1.31-2.52,2.8-3.74,4.23-1.23,1.45-2.61,2.76-3.78,4.26-.25.32-.57.54-.98.6-.14-.31.01-.49.19-.68,1.35-1.42,2.53-2.99,3.66-4.6.39-.56.96-.93,1.31-1.52.45-.75.87-1.56,1.47-2.19.69-.73,1-1.71,1.7-2.41.19-.19.23-.43.3-.66.17-.59.51-1.09.8-1.63.38-.7,1.12-1.21,1.19-2.09,0-.12.06-.27.14-.33.66-.5.55-1.33.86-1.98.27-.58-.23-1.07-.53-1.49-.31-.44-.35-.73.02-1.12.33-.34.42-.88.85-1.17Z"/>
    <path class="cls-1" d="M14.94,82.57c-.17-.78.09-1.37.27-1.93.37-1.15.3-2.32.33-3.48.03-1.07-.07-2.14-.1-3.21-.01-.46-.16-.9-.23-1.35-.16-.99.1-2.03-.35-3-.15-.34-.08-.79-.09-1.18-.02-1.3-.15-2.58-.44-3.85-.09-.39.05-.78.02-1.18-.05-.69.08-1.4-.17-2.08-.05-.13-.02-.32.05-.45.21-.42.2-.82.04-1.24-.04-.11-.05-.26-.02-.36.35-1-.07-2.01-.02-3.03-.29.76-1.17,1.22-1.07,2.18.02.19-.13.41-.24.59-.24.38-.38.76-.3,1.22.04.28-.08.54-.18.8-.36.94-.77,1.87-.89,2.89-.06.48-.29.91-.4,1.38-.28,1.25-.08,2.57-.59,3.78.28.82-.32,1.63-.03,2.45.03.08.02.18.01.28-.22,1.9-.03,3.81-.05,5.71,0,.71.24,1.38.29,2.07.15,1.81.82,3.49,1.26,5.23.06.23.2.57-.06.67-.36.14-.54-.18-.62-.5-.28-1.1-.51-2.22-.84-3.31-.33-1.09-.43-2.22-.7-3.32-.26-1.04-.17-2.12-.3-3.18-.05-.46-.07-.92-.15-1.38-.23-1.28-.19-2.55-.08-3.84.07-.78.06-1.59.2-2.35.2-1.09.23-2.19.35-3.28.11-.95.45-1.84.5-2.79,0-.03,0-.07.02-.09.5-.85.63-1.82.88-2.76.11-.41.31-.79.3-1.24,0-.09-.01-.21.03-.27.6-.85.68-1.95,1.31-2.78.17-.23.34-.45.34-.74,0-.55.3-.92.7-1.24.62-.49.64-1.19.63-1.89-.03-1.12-.36-2.24.04-3.35.14-.39.08-.79.05-1.19-.06-.73.05-1.44.47-2.11.35,1.14.7,2.27,1.05,3.41.06.19,0,.36-.05.54-.12.46-.21.82.44,1.07.65.25.83,1.25.39,1.83-.62.82-.32,1.71-.27,2.57.02.34.2.69.18,1.07,0,.15.03.31.08.45.4,1.14.93,2.25.88,3.5-.01.24.08.48.24.69.35.46.05,1.09.29,1.5.26.45.62.82.64,1.37,0,.09-.02.22.02.27.75.89.66,2.11,1.29,3.09.51.81.7,1.88,1.13,2.79.51,1.07.99,2.16,1.49,3.24.04.08.1.16.13.24.06.12.04.24-.06.34-.11.11-.23.07-.32-.03-.21-.22-.41-.43-.55-.73-.44-.95-.92-1.87-1.43-2.79-.66-1.17-1.1-2.46-1.73-3.65-.6-1.13-.95-2.38-1.71-3.42-.15-.21-.24-.43-.25-.68,0-.18.01-.38-.12-.53-.42-.48-.57-1.01-.28-1.62.07-.15-.01-.33-.17-.38-.19-.06-.25.12-.3.27-.15.41-.56.77-.21,1.27.04.06.04.19,0,.27-.35.79-.01,1.62-.17,2.41-.05.25-.04.48.09.72.14.27.12.54-.06.79-.42.57.05,1.26-.24,1.85.39.82.1,1.68.17,2.52.08.91.2,1.82.3,2.72.17,1.49.39,2.97.42,4.47.02.79.04,1.58.03,2.37-.03,1.73-.49,3.34-1.5,4.91Z"/>
    <path class="cls-1" d="M46.44,55.68c.09.57-.03,1.08-.47,1.51-.1.09-.14.28-.14.43-.02.61-.22,1.14-.64,1.59-.06.07-.13.15-.14.24-.18,1.51-1.31,2.59-1.8,3.97-.14.41-.45.56-.86.56-.2,0-.39-.06-.43-.27-.12-.59-.39-1.21.21-1.71.23-.19.23-.47.33-.72.39-1.01.56-2.1,1.16-3.03.31-.48.42-1.07.44-1.65.01-.36.11-.65.41-.87.5-.36.98-.75,1.47-1.12.14-.1.28-.3.47-.15.17.12.15.33.12.51-.04.24-.1.48-.15.74Z"/>
    <path class="cls-1" d="M18.12,51.66c.49.59.92,1.1,1.34,1.62.22.27.37.57.41.91.11.84.26,1.68.31,2.53.05.83,0,1.7.29,2.52.2.56,0,1.15.09,1.72.04.28-.19.59-.56.63-.36.04-.51-.1-.61-.49-.26-.94-.72-1.83-.71-2.84,0-.17-.13-.34-.21-.5-.11-.22-.3-.45-.24-.68.21-.81.02-1.55-.28-2.29-.09-.23,0-.48.04-.73.06-.28.05-.55-.09-.81-.3-.55-.19-1.06.21-1.6Z"/>
    <path class="cls-1" d="M42.27,57.63c-.43.45-.36,1.11-.61,1.65-.37.81-.67,1.61-.69,2.51,0,.17-.1.35-.17.51-.15.32-.23.74-.77.55-.46-.17-.77-.62-.65-1.07.3-1.14.68-2.25.8-3.43.02-.2.13-.35.3-.43.48-.21.95-.42,1.44-.61.24-.1.32.06.35.32Z"/>
    <path class="cls-1" d="M21.82,55.44c.22.14.34.22.47.3.66.41,1,.85.87,1.77-.12.81-.08,1.68-.06,2.53,0,.28-.02.53-.27.73-.45.35-.75.22-.93-.31-.33-.97-.23-1.95-.14-2.93.02-.22,0-.43-.09-.62-.22-.49-.12-.94.15-1.48Z"/>
  </g>
  <path class="cls-1" d="M109.53,51.12c2.42,1.04,4.87,2.02,7.18,3.28,1.11.6,2.02,1.37,2.57,2.54.8,1.68,2.44,1.95,4.02,2.25.17.03.4-.1.57-.2,1.07-.65,2.19-.65,3.37-.39,1.07.24,2.11.59,3.14.95,2.81.99,5.57,2.1,8.33,3.21,1.43.58,2.72,1.43,4.03,2.22,1.32.8,1.98,2.91,1.38,4.33-.43.99-.96,1.89-1.64,2.7-.15.18-.35.36-.56.44-1.04.38-1.93,1.03-2.92,1.49-1.65.77-3.4.86-5.1.36-3.76-1.12-7.26-2.82-10.49-5.07-.76-.53-1.47-1.1-1.88-1.99-.21-.46-.3-.88-.22-1.37.18-1.04.32-2.09.26-3.16-.06-.94-.55-1.51-1.4-1.82-.94-.35-1.29-.25-1.94.54-.39.47-.81.93-1.19,1.41-1.29,1.63-3.05,2.1-5.01,2.06-1.07-.02-2.11-.27-3.11-.62-2.23-.77-4.47-1.52-6.67-2.39-1.84-.74-3.09-2.07-3.96-3.8-.38-.77-.61-1.6-.84-2.42-.15-.53-.31-1.04-.75-1.42-.38-.32-.45-.76-.33-1.22.25-1,.51-2.08,1.19-2.81,1.05-1.12,2.3-2.06,4.03-1.83,1.1.14,2.14.45,3.16.85,1.6.62,3.18,1.26,4.77,1.9ZM108.49,52.19c-.7-.28-1.4-.56-2.1-.84-1.06-.41-2.13-.74-3.27-.86-1.46-.15-2.17.26-2.76,1.59-.45,1.01-.61,2.09-.67,3.2-.1,2.13.76,3.67,2.65,4.71,1.93,1.06,3.96,1.87,6.02,2.61,1.16.42,2.37.66,3.59.81,1.4.17,2.45-.29,3.24-1.48.68-1.03,1.27-2.11,1.73-3.25.61-1.49.47-1.97-.89-2.8-2.4-1.46-4.95-2.63-7.56-3.69ZM134.86,62.79c-.99-.39-1.95-.84-2.96-1.17-1.76-.57-3.51-1.16-5.33-1.49-1.14-.21-1.65.07-2.1,1.13-.57,1.33-.96,2.7-1.17,4.14-.17,1.19.2,2.15,1.13,2.9.24.19.48.39.73.56,2.86,1.9,6.04,3.05,9.34,3.86,1.66.41,3.11-.1,4.3-1.34.65-.67,1.2-1.4,1.65-2.21,1.13-2.06.81-3.23-1.18-4.45-1.38-.85-2.9-1.37-4.42-1.92ZM140.21,72.29c1.93-.26,2.78-1.57,3.27-3.18.26-.84.29-1.7-.2-2.7-.54,2.37-1.42,4.33-3.07,5.89ZM123.56,59.96c-1.18-.22-2.11-.52-3.02-.89-.96-.4-1.51-1.23-2.12-2.15-.13,1.3.41,1.99,1.41,2.37.76.29,1.53.58,2.29.86.39.14.79.18,1.43-.18ZM117.18,61.44c.52-.34.89-.8,1.36-1.48-.92.3-1.07.94-1.36,1.48Z"/>
  <path class="cls-1" d="M145.21,120.06c.54.73.58,1.54.83,2.28.17.51.26,1.04.38,1.57.25,1.14-.54,2.36-1.68,2.62-.35.08-.42-.14-.48-.41-.3-1.21-.3-1.23-1.53-1.06-2.14.31-4.22.87-6.29,1.47-6.01,1.72-11.86,3.88-17.52,6.55-.29.14-.61.24-.87.43-.47.35-.99.7-.62,1.46.25.52-.13.7-.53.83-.67.21-1.06.11-1.24-.39-.37-1.05-.71-2.11-1.02-3.18-.16-.54-.38-1.05-.39-1.66,0-.56-.47-1.03-.78-1.51-.27-.42-.56-.35-.87-.05-.49.48-.88,1.04-1.23,1.63-.11.19-.12.35-.03.59.46,1.29.22,2.63.18,3.94-.02.93-1.6,2.26-2.53,2.36-.36.04-.56,0-.53-.42.02-.29,0-.57,0-.86-.02-.91-.03-.95-.95-1.09-4.3-.66-8.62-1.03-12.97-1.03-3.91,0-7.82.15-11.72.43-.77.06-1.52.12-2.03.92-.4.62-1.81.19-1.88-.59-.18-1.75-.25-3.51.28-5.23.05-.16.17-.3.26-.46,1.06.62,2.06,1.25,3.1,1.82,1.38.75,2.85,1.14,4.45,1.05.59-.03,1.01-.52,1.61-.44.73.1,1.4-.14,2.07-.38.7-.26,1.45-.43,1.66-1.34.08-.34.46-.38.79-.44.77-.14,1.39-.51,1.82-1.21.33-.54.6-1.06.27-1.71-.22-.44-.09-.72.44-.65.9.11,1.3-.43,1.57-1.16.29-.82.44-1.68.42-2.54-.02-.81-.37-1.51-1.08-2.01-.64-.45-1.31-.89-1.72-1.66.47-.22.88-.02,1.27.05.64.12,1.28.18,1.92.05.24-.05.5-.1.71-.22.58-.33.66-.91.12-1.3-1.29-.91-2.42-2.02-3.77-2.84-.18-.11-.39-.18-.5-.39-.18-.33.02-.72.37-.66.58.11,1.02.04,1.39-.48.15-.21.5-.26.79-.3.71-.1,1.42-.2,2.13-.3.42-.06.85-.04,1.02.39.19.48.51.41.87.36,2.38-.36,4.8-.55,7.12-1.14,2.2-.56,4.45-.72,6.64-1.23,1.99-.46,4-.87,5.99-1.31.49-.11.92-.27,1.18-.8.2-.42.68-.63,1.15-.72.85-.17,1.68-.36,2.51-.61.75-.23.98-.04,1.08.73.03.21.06.44.01.64-.36,1.64-.57,3.32-1.58,4.75-.45.64-.55,1.4-.58,2.16-.03.76-.11,1.5-.43,2.2-.22.49-.23.99.2,1.38.31.28,1.1.24,1.52-.06.23-.16.35-.46.7-.45.18.21.18.47.18.71,0,1.11.6,1.87,1.4,2.55.61.51,1.24.98,1.96,1.32.52.25,1.01.54,1.5.84.73.45,1.58.59,2.43.66.49.04.93.15,1.41.35,1.02.42,2.14.31,3.07-.31.48-.32.86-.55,1.45-.46.8.13,1.47-.22,2.04-.76.98-.94,2.06-1.8,2.76-3,.05-.09.15-.14.32-.28ZM123,119.68s-.03,0-.04,0c-.2-1.39-.34-2.78-.6-4.15-.2-1.04-.27-1.03-1.27-.81-.49.11-.98.2-1.46.35-1.19.36-1.21.38-1.03,1.56.44,2.91.9,5.81,1.37,8.72.04.28.12.57.25.82.15.31.42.47.8.41,1.95-.31,2.71-1.29,2.51-3.28-.02-.25-.06-.5-.1-.75-.13-.96-.27-1.92-.41-2.88ZM109.44,119.87c-.06-.43-.13-.85-.18-1.28q-.16-1.61-1.81-1.45c-1.15.12-1.2.19-1.1,1.31.31,3.32.66,6.63.85,9.96.02.4.1.78.24,1.15.27.72.7,1,1.47.94.59-.05.88-.4.99-1.2.03-.21.02-.43.02-.64.04-2.94-.32-5.86-.49-8.8ZM101.39,127.74s.02,0,.04,0c.04.28.07.57.12.85.08.43.33.69.75.82,1.42.43,2.14-.07,2.2-1.55,0-.21,0-.43-.04-.64-.33-2.53-.26-5.08-.49-7.62-.18-2-.09-2.01-2.03-1.68-.85.15-.94.24-.93,1.12.02,1,.06,2.01.1,3.01.09,1.9.18,3.79.27,5.69ZM116.24,119.43h.04c-.08-.54-.15-1.07-.23-1.61-.07-.46-.14-.92-.23-1.38-.06-.28-.24-.44-.54-.39-.3.04-.43.23-.4.53.02.18.02.36.05.54.15.89-.02,1.71-.44,2.5-.22.41-.41.84-.64,1.24-.3.52-.39,1.05-.33,1.65.18,1.75.48,3.49.55,5.25.02.5.13.99.38,1.45.23.43.45.62.91.29.38-.27.78-.51,1.19-.74.39-.22.55-.54.55-.97,0-.32,0-.65-.04-.97-.26-2.46-.54-4.93-.81-7.39ZM121.84,112.35h-.01c-.01-.07-.02-.14-.03-.21-.23-1.46-.23-1.45-1.69-1.17-2.59.49-2.17.63-1.92,2.82,0,.07.02.14.03.21.06.51.34.67.82.56.66-.16,1.33-.3,1.99-.48,1.03-.28,1.03-.29.88-1.3-.02-.14-.04-.28-.06-.43ZM107.46,116.57c.14-.02.28-.04.42-.06,1.14-.16,1.18-.2,1.06-1.35-.18-1.79-.26-1.84-2.17-1.46-.75.15-.89.31-.86,1.07,0,.21.05.43.07.64.2,1.51.13,1.33,1.47,1.16ZM102.29,117.29q1.41-.2,1.37-1.61c0-.07,0-.14,0-.21-.07-1.16-.2-1.26-1.38-1.08-.18.03-.35.05-.53.08-.81.14-.89.22-.92,1.02,0,.21.02.43.04.64.09,1.63.23,1.32,1.43,1.17ZM98.34,123.54c-.21.1-.2.26-.22.39-.21,1-.49,1.96-1.43,2.55-.22.14-.23.34-.2.57.05.36.07.72.14,1.07.12.55.46.74,1.13.71.54-.02.78-.29.8-.8.06-1.49,0-2.98-.22-4.48ZM104.6,113.57s0-.04,0-.06c1.2-.17,2.41-.34,3.61-.51.25-.04.5-.07.74-.13.2-.05.28-.2.22-.41-.05-.19-.21-.18-.34-.17-.21.02-.43.05-.64.08-1.2.18-2.41.36-3.61.54-1.17.17-2.34.32-3.5.52-.35.06-1.01-.06-.93.44.1.62.7.2,1.06.16,1.14-.11,2.27-.3,3.4-.46ZM126.25,119.86l-.22.07c.11.8.17,1.61.35,2.39.4,1.72.99,1.98,2.57,1.2.33-.16.35-.33.07-.55-.37-.28-.74-.55-1.11-.83-.79-.58-1.44-1.27-1.66-2.28ZM126.09,108.47c-.65-.04-1.06.09-1.45.23-.22.08-.47.21-.41.54.2.99.19,2.03.75,3.11.84-1.24.7-2.58,1.11-3.88ZM114.35,111.47c.19.01.33.04.47.03,2.03-.26,4.02-.72,6-1.22.55-.14,1.11-.29,1.66-.45.14-.04.25-.16.17-.32-.05-.1-.15-.13-.27-.09-.07.02-.14.05-.21.06-2.42.53-4.83,1.05-7.25,1.59-.19.04-.44.01-.57.41ZM113.92,114.01h0c-.04-.29-.09-.57-.12-.85-.05-.39-.25-.58-.65-.54-.38.04-.6.25-.58.64.02.54.05,1.07.11,1.61.08.67.19.72.8.7.61-.02.59-.38.52-.8-.04-.25-.07-.5-.11-.75ZM113.4,119.98c.74-.99,1.01-1.91.79-2.95-.07-.35-.22-.6-.63-.56-.39.04-.59.29-.56.65.1.9.25,1.8.39,2.86ZM114.79,113.59c.07.52.12.94.2,1.36.04.2.08.46.36.45.32-.01.4-.28.38-.54-.06-.89-.17-1.77-.36-2.64-.06-.27-.19-.34-.45-.3-.23.04-.26.17-.24.38.05.46.09.92.12,1.29ZM110.95,116.05c-.14-.98-.3-1.97-.41-2.96-.09-.76,0-.86.75-1.01.76-.15,1.53-.3,2.29-.45-.82-.05-1.62.03-2.4.18-.99.19-1.06.32-.97,1.29.07.71.14,1.43.23,2.14.04.31-.02.66.52.8ZM125.03,108.08c-.68.1-1.24.17-1.81.26-.1.02-.24.05-.22.17.02.13.11.25.19.36.06.08.21.12.25,0,.26-.78,1.09-.33,1.59-.79ZM99.4,113.75s.07.02.11.04c.04-.17.06-.34.11-.5.06-.17.11-.34-.03-.49-.03-.03-.14-.02-.2,0-.27.12-.05.29-.04.44,0,.17.03.34.05.52ZM97.23,113.17h0c.28-.04.55-.07.83-.11h0c-.28.04-.55.07-.83.11Z"/>
  <g>
    <path class="cls-1" d="M127.16,9.45c2.4,3.39,4.86,6.74,8.07,9.5-1.25-.56-2.26-1.56-3.64-1.94,1.91,2.66,3.92,5.21,6.95,6.92-.52.21-.81-.14-1.14-.19-.23-.04-.48-.29-.68,0-.15.22.03.42.15.6,1.34,2.05,3.06,3.64,5.41,4.47.24.08.58.04.69.48-1.23-.24-2.38-.58-3.5-1.03-.21-.09-.45-.34-.67-.07-.21.25.03.46.16.67,1.61,2.61,3.56,4.93,5.99,6.83.21.17.48.29.6.72-1.02-.29-1.69-1.03-2.52-1.46-.42-.22-.83-.9-1.25-.56-.41.34.12.91.29,1.35.49,1.22,1.13,2.39,1.22,3.92-.93-1.13-1.43-2.38-2.34-3.36-.06,1.67,1.84,5.43,4.39,9.02-.6-.43-1.23-.83-1.79-1.31-.57-.49-1.08-1.04-1.61-1.59-.53-.55-1.04-1.12-1.65-1.61.26.87,1.03,1.43,1.37,2.43-.93-.37-1.31-1.16-1.83-1.76-.67-.79-1.25-1.65-1.86-2.48-.11-.16-.21-.35-.43-.26-.23.09-.14.31-.11.49.19,1.34.36,2.68.59,4.01.16.96.95,1.53,1.56,2.18.39.41.64.81.52,1.56-2.38-1.79-4.26-3.91-6.41-5.75.25.72.5,1.44.75,2.17.07.2.19.47-.1.57-.31.11-.32-.22-.41-.4-1.31-2.83-2.96-5.45-4.79-7.96-.11-.15-.2-.33-.58-.34.43,1.41.73,2.81.66,4.28-1.39-4.5-3.8-8.43-6.59-12.19,0,1.23.01,2.46.02,3.68-.08.01-.16.02-.24.04-.89-3.65-1.51-7.37-2.76-10.95-.45.21-.33.51-.31.77.12,1.12.24,2.25.37,3.37.04.31.18.69-.29.73-.46.04-.42-.39-.42-.68,0-2.22-.35-4.38-1.04-6.48-.3-.91-.71-1.78-1.08-2.66-.09.02-.17.04-.26.06,0,1.33-.02,2.65-.03,3.98,0,.19.01.38,0,.56-.01.26.14.66-.28.67-.31,0-.27-.37-.31-.6-.52-2.97-.92-5.96-1.02-8.98,0-.27.03-.56-.23-.8-.89,1.22-1.78,2.43-2.66,3.64-.11.15-.19.35-.33.45-.39.29-.95.92-1.22.63-.41-.44.35-.73.64-1.04.85-.92,1.43-1.99,1.91-3.12.67-1.59,1.33-3.19,1.95-4.81.24-.62.5-1.02,1.23-.71.11.05.26.1.37.07,1.08-.39,2.15-.56,3.23.04.11.06.38-.04.52-.15,1.08-.79,2.37-.76,3.6-.95.44-.07.69.25.95.51,1.28,1.3,2.55,2.6,3.83,3.9.62.63,1.22,1.27,2.04,1.65.2.09.61.1.43.46-.13.26-.46.1-.69.04-.95-.27-1.79-.76-2.65-1.22-.16-.09-.31-.21-.46-.31-.09.1-.17.19-.26.29Z"/>
    <path class="cls-1" d="M92.64,38.77c.27,4.64.86,9.22,2.53,13.64-1.19-1.14-1.68-2.65-2.41-4.11.05,1.17.04,2.35.17,3.51.06.6.91.58,1.29,1.2-1.46-.24-1.15.65-1.03,1.37.23,1.36.51,2.72.76,4.08.03.18.25.47-.09.54-.25.05-.33-.21-.41-.42-.2-.52-.14-1.22-.85-1.46-.26.38-.22.81-.24,1.2-.1,2.1-.98,4.09-.92,6.21,0,.11-.06.27-.14.32-.16.1-.28-.06-.39-.16-.28-.26-.3-.55-.26-.93.13-1.29.46-2.62-.54-3.76-.1-.11-.16-.27-.43-.28-.19.44.08.86.11,1.3.02.34.28.88-.17,1-.45.13-.53-.42-.66-.76-.18-.5-.35-1-.6-1.72-.47,1.01-.36,1.84-.32,2.66.01.27.19.66-.19.7-.51.06-.37-.42-.36-.69.11-2.31-.6-4.46-1.24-6.63.09,1.99.47,3.93.92,5.89-1.23-1.81-2.23-3.71-3.05-5.77-.35.23-.28.48-.27.71.07,1.41.15,2.82.38,4.22.05.3.35.8-.08.91-.51.14-.49-.48-.59-.79-.42-1.28-.94-2.54-1.16-3.88-.05-.3-.17-.59-.29-1.02-.49.59-.64,1.22-.74,1.78-.2,1.13-.73,2.13-1.04,3.21-.05.17-.12.32-.3.29-.23-.03-.27-.24-.24-.43.02-.12.07-.24.12-.36,1.42-3.39,1.26-6.94,1.03-10.49-.01-.22-.01-.48-.26-.56-.3-.1-.34.21-.44.38-.4.68-.82,1.34-1.08,2.09-.05.15-.1.31-.2.43-.28.36-.69,1.02-.99.82-.55-.36.08-.82.31-1.16,1.51-2.28,1.73-4.79,1.43-7.42,0-.08-.09-.14-.16-.24-.64.45-.44,1.4-1.14,1.81-.17-.33-.04-.63.06-.89.99-2.58.94-5.3,1.11-7.99.01-.23.09-.57-.27-.59-.3-.01-.24.32-.28.51-.25,1.04-.53,2.06-1.19,2.99.57-4.2.68-8.4.2-12.65-.45.86-.87,1.73-1.35,2.56-.22.38-.47,1.08-.92.87-.39-.18.18-.67.29-1.03.19-.64.29-1.29.36-1.94.15-1.47.41-2.94.42-4.41.03-2.11,1.34-2.89,3.15-3.43.88-.26,1.7-.37,2.04-1.38.08-.23.37-.5.61-.54.77-.15,1.4-.41,1.84-1.13.24-.39.62-.11.91.07,1.5.92,3.02,1.8,4.59,2.61,1.3.67,2.6,1.25,4.08,1.37.25.02.66-.04.62.38-.04.37-.4.2-.63.21-.6.04-1.18-.03-1.76-.22-1.08-.34-2.17-.64-3.26-.95-.2-.06-.44-.22-.58.05-.11.2.08.35.19.5,1.08,1.47,2.1,2.98,3.01,4.56.63,1.09,1.24,2.19,1.85,3.28.1.18.31.42.09.59-.28.21-.43-.06-.59-.26-.71-.92-1.41-1.85-2.15-2.75-.22-.27-.36-.67-.84-.75-.06.76.2,1.45.43,2.1.76,2.1,1.64,4.15,3.08,5.9.08.1.15.2.22.31.21.3.62.69.22.97-.45.32-.58-.27-.76-.55-.76-1.14-1.5-2.3-2.29-3.51-.32.4-.07.68.03.92,1.21,3.17,2.55,6.29,4.26,9.24.13.23.46.48.08.7-.32.19-.4-.2-.52-.38-.62-.89-1.23-1.78-1.85-2.68-.09.03-.17.07-.26.1Z"/>
  </g>
  <path class="cls-1" d="M95.94,92.02c-5.45-1.04-10.91-2.07-16.36-3.11-1.21-.23-1.26-.3-1.19-1.52.05-.8-.08-1.61.14-2.41.47-1.73,1.42-3.05,3.1-3.81,2.6-1.17,5.27-2.15,7.98-3.01.71-.23,1.43-.11,2.15-.18,2.19-.21,4.39-.25,6.6-.13.56.03,1.1.17,1.64.32,2.38.66,4.59,1.73,6.78,2.83,1,.5,2.02.96,2.96,1.55,2.19,1.35,3.93,3.16,4.79,5.62.48,1.38.28,2.81-.42,4.12-.15.29-.27.5-.23.88.07.63-.24,1.25-.42,1.86-.06.19-.22.24-.4.21-.22-.03-.44-.08-.66-.12-5.48-1.04-10.96-2.08-16.44-3.12v.02ZM85.26,80.36c-1.67.52-3.2,1.24-4.68,2.09-.79.45-1.19,1.16-1.45,1.97-.2.63,0,1.21.3,1.77.24.45.72.38,1.11.46,3.59.67,7.19,1.31,10.78,1.98,6.99,1.31,13.99,2.63,20.98,3.95.82.15,1,.07,1.45-.63.16-.24.23-.5.3-.77.44-1.69,0-3.18-.96-4.56-.05,0-.09-.01-.11,0-.12.06-.24.14-.36.2-1.04.59-2.06.92-3.01-.17-.11-.13-.25-.2-.44-.11-.25.12-.63.14-.75.33-.4.61-.9.36-1.39.28-.33-.05-.66-.11-.99-.18-4.62-.96-9.22-1.97-13.86-2.82-1.55-.28-2.62-1.25-3.51-2.46-.17-.23-.29-.3-.53-.19-.45.21-.92.41-1.36.64-.86.45-.86.46-1.41-.36-.06-.09-.12-.19-.19-.28-.29-.38-.36-.75.08-1.14ZM108.96,86.08c-.22-.35-.52-.49-.65-.78-.14-.31-.49-.44-.77-.62-3.42-2.24-7.13-3.65-11.22-4-2.27-.19-4.51.02-6.73.49-.53.11-.59.25-.28.67.65.86,1.43,1.55,2.55,1.76,1.59.29,3.18.62,4.76.94,3.14.63,6.29,1.28,9.43,1.91.98.2,1.93.1,2.91-.35ZM112.62,86.28c-.89-1.15-1.72-2.21-2.86-2.92-1.81-1.14-3.76-2.05-5.67-3.02-2.36-1.19-4.9-1.71-7.49-1.9-2.87-.21-5.72.08-8.51.89-.93.27-1.73.75-2.53,1.26-.32.21-.4.44-.15.75.09.11.16.23.24.34.38.54.39.54,1,.22,1.26-.66,2.58-1.16,3.99-1.42,3.15-.58,6.26-.48,9.36.29,3.04.76,5.8,2.1,8.37,3.87.46.31.91.63,1.22,1.12.78,1.19,1.4,1.34,2.65.66.1-.05.21-.08.39-.15Z"/>
  <path class="cls-1" d="M69.76,100.61c-5.67.53-11.33,1.05-17,1.58-.81.08-1.14-.09-1.16-.89-.02-.96-.29-1.84-.59-2.72-.2-.57-.08-1.17.13-1.72.77-1.99,2-3.63,3.66-5,1.84-1.51,4.03-2.23,6.19-3.05,2.7-1.03,5.54-1.32,8.36-1.54,2.08-.16,4.18.08,6.26.32.3.03.6.15.88.26,1.71.68,3.42,1.36,5.12,2.08,1.24.53,2.29,1.37,3.41,2.12.17.11.26.26.34.45.12.31.39.6.68.69.42.13.62.44.9.71.74.71.85,1.59.66,2.54-.04.22-.16.42.02.63.05.06.06.16.07.24.28,1.31.05,1.62-1.26,1.74-5.56.52-11.11,1.05-16.67,1.58ZM85.31,96.99v.05c.12-.01.23-.03.34-.04.93-.09,1.19-.35,1.33-1.27.07-.48-.1-.86-.36-1.24-1.16-1.66-2.87-2.6-4.54-3.62-.28-.17-.44-.08-.61.17-.29.41-.46.9-.83,1.25-.42.39-.75.43-1.16.02-.33-.33-.76-.46-1.14-.68-.27-.16-.45-.08-.64.15-.86,1.07-2.02,1.5-3.35,1.65-3.33.37-6.65.77-9.97,1.16-1.8.21-3.6.41-5.4.65-.52.07-.93-.07-1.31-.38-.22-.18-.41-.38-.61-.57-.11-.11-.23-.16-.36-.03-.5.53-1.08.3-1.64.15-1.31-.33-1.85-.13-2.57,1.02-.24.38-.46.77-.66,1.17-.45.91-.32,1.78.19,2.62.32.52.72.73,1.38.66,4.89-.46,9.78-.87,14.67-1.31,5.75-.52,11.5-1.05,17.24-1.58ZM77.34,91.2c-.27-.11-.45-.19-.63-.26-.89-.33-1.83-.49-2.74-.73-1.33-.34-2.68-.52-4.04-.56-2.23-.06-4.38.46-6.48,1.13-1.81.57-3.53,1.37-5.16,2.36-.26.16-.61.31-.54.66.06.35.37.54.72.63.19.05.38.09.57.13.78.15,1.56,0,2.33-.09,4.21-.51,8.42-1.02,12.63-1.52.59-.07,1.16-.21,1.7-.41.65-.25,1.23-.62,1.65-1.34ZM54.05,93.44c.41.31.86.37,1.27.5.46.15.83.08,1.23-.23,1.49-1.14,3.14-2.02,4.88-2.73,3.22-1.31,6.54-2.02,10.03-1.87,2.14.09,4.18.61,6.22,1.2.14.04.25.11.36.2.63.52,1.39.82,2.06,1.27.11.08.26.18.37.05.27-.29.5-.63.56-1.01.06-.34-.33-.41-.55-.54-1.51-.88-3.17-1.37-4.83-1.83-1.1-.3-2.22-.56-3.37-.57-2.97-.03-5.9.24-8.82.79-2.84.54-5.37,1.81-7.83,3.26-.62.36-1.15.85-1.58,1.5Z"/>
  <g>
    <path class="cls-1" d="M23.36,99.03c-.83,2.27-1.63,4.55-2.58,6.78-.67,1.57-.52,3.17.26,4.7.47.92,1.05,1.76,1.72,2.56,2.94,3.45,6.15,6.61,9.66,9.46,2.47,2.01,5.24,3.56,8.35,4.4,1.16.31,2.35.32,3.54.3,5.66-.13,11.16-1.28,16.59-2.81.15-.04.3-.1.45-.16,1.25-.48,2.22-1.18,2.84-2.48,1.74-3.6,3.5-7.2,5.11-10.86.41-.94.93-1.83,1.25-2.82.2-.61.55-.7,1.07-.27.49.4,1.3.5,1.49,1.09.18.58-.57.96-.78,1.5-.76,1.91-1.56,3.81-2.3,5.74-1.06,2.73-2.17,5.44-2.94,8.28-.75,2.74-1.09,5.51-1.15,8.33-.05,2.02-.07,4.03-.12,6.05-.02.69-.28,1.23-.85,1.73-1.41,1.22-2.99,2.03-4.79,2.52-3.48.94-6.98,1.36-10.58.87-1.96-.27-3.96-.31-5.9-.66-3.27-.6-6.51-1.4-9.61-2.61-5.78-2.25-11.23-5.11-16.23-8.8-.19-.14-.33-.35-.59-.37-1.14-.08-1.81-.81-2.36-1.69-.22-.35-.49-.66-.8-.86-1.77-1.15-2.88-2.91-4.18-4.48-.6-.73-.73-1.74-.81-2.7-.03-.35.18-.59.34-.86,2.1-3.72,4.21-7.44,6.27-11.19,1.28-2.33,2.31-4.78,3.38-7.21,1.1-2.5,2.17-5.02,3.24-7.53.23-.55.47-1.1.43-1.71-.02-.32.09-.58.42-.61.6-.07,1.16.16,1.74.28.23.05.34.33.28.59-.07.31-.16.61-.26.91-.52,1.54-1.05,3.07-1.58,4.61ZM33.71,124.43c-.52-.9-1.5-1.24-2.25-1.86-.22-.18-.48-.28-.77-.19-.29-.44-.88-.48-1.21-.89-.68-.83-1.54-1.48-2.37-2.15-.52-.43-1.08-.86-1.39-1.45-.55-1.01-1.24-1.88-2.03-2.69-.96-1-1.92-2-2.84-3.04-1.38-1.58-1.82-4.33-.92-6.24,1.73-3.71,2.85-7.65,4.26-11.48.05-.15.11-.3.15-.45.07-.36-.19-.59-.55-.49-.27.07-.34.28-.42.52-.57,1.69-1.3,3.32-1.99,4.96-1.22,2.93-2.2,5.95-3.17,8.97-.59,1.84-1.5,3.46-2.81,4.9-1.63,1.79-3.04,3.74-4.18,5.89-.45.86-.86,1.66-.6,2.65-.24-.03-.18-.48-.65-.33.76,3.35,2.94,5.71,5.36,7.9-.04-.44-.36-.68-.59-.99-1.31-1.73-2.7-3.42-3.57-5.44.58.27.82.84,1.13,1.33.92,1.44,1.91,2.82,2.98,4.15,3.32,4.11,7.67,6.79,12.37,9,3.88,1.83,7.9,3.29,12.04,4.39,2.33.62,4.68,1.19,7.13,1.16,2.45-.03,4.9-.1,7.35-.15,3.13-.07,5.96-1.14,8.77-2.36.65-.28.99-.75,1.05-1.45.1-1.34.41-2.65.62-3.98.38-2.3.9-4.61.65-6.95-.24-2.24.11-4.22,1.1-6.28,1.76-3.67,3.28-7.46,5.22-11.06.17-.31.29-.65.41-.98.1-.31-.04-.54-.33-.67-.31-.13-.53-.03-.67.28-.06.15-.13.29-.2.43-1.17,2.51-2.36,5.02-3.51,7.54-.97,2.12-2.14,4.15-3.02,6.32-.29.72-.75,1.41-1.51,1.78-1.25.6-2.51,1.2-3.88,1.46-1.79.34-3.54.92-5.34,1.15-2.63.34-5.25,1.36-7.96.48-.07-.02-.17-.05-.23-.02-.83.34-1.63.03-2.43-.11-3.19-.55-6.17-1.66-9.01-3.2-.15-.08-.21-.22-.18-.4v.03ZM65.14,139.12c-.5.11-.77.27-.98.52-.39.47-.92.73-1.47.97-3.23,1.39-6.56,2.27-10.11,2.22-1.21-.02-2.41.06-3.73.1.18.12.24.19.3.2,2.96.28,5.91.31,8.85-.18,1.74-.28,3.36-.87,4.9-1.71.87-.47,1.64-1.06,2.22-2.11ZM67.98,119.48c-1.04,2.13-2.24,4.2-2.1,6.7.58-2.27,1.4-4.46,2.1-6.7ZM65.18,133.36c-.16.89-.34,1.78-.46,2.68-.12.89-.49,1.76-.13,2.68,1.09-1.67.6-3.55.6-5.36ZM17.84,107.29c-.91,1.31-1.48,2.79-2.19,4.2,1.25-1.13,1.73-2.66,2.19-4.2ZM47.53,127.76c-.24.04-.47.07-.8.13.37.23.62.07.8-.13Z"/>
    <path class="cls-1" d="M32.41,123.82c.43.2.87.41,1.3.61,0,0,.01-.03.01-.03-.49-.08-1-.12-1.32-.58Z"/>
    <path class="cls-1" d="M42.79,131.85c.28-.42.6-.82.82-1.27.3-.61.75-.76,1.36-.63.31.07.61.15.92.22.49.12.74.42.73.93-.07,2.53.1,5.06.33,7.58.05.57-.22.8-.73.84-.24.02-.47.03-.71.02-.97-.02-1.05-.11-1.11-1.07-.02-.33.09-.71-.22-.99-.25.14-.26.4-.35.6-.43,1.03-1.03,1.4-2.11,1.27-.61-.07-1.03-.32-1.09-1.02-.07-.78-.28-1.54-.58-2.44-.5.57-.55,1.2-.77,1.75-.36.89-.4.93-1.29.66-1.97-.59-1.65-.48-.96-2.11.74-1.75,1.51-3.49,2.27-5.23.14-.33.3-.65.48-.96.48-.86.82-1,1.73-.78.84.21,1.14.6,1.14,1.54,0,.35-.02.7-.03,1.06.06.01.12.02.18.04ZM40.04,133.78c-.46,1.06-.93,2.13-1.39,3.19-.09.22-.18.44-.26.66-.06.17-.01.32.17.36.11.02.23-.02.27-.16.09-.26.19-.51.29-.77.23-.59.27-1.4.76-1.69.84-.5.37-1.01.15-1.59ZM42.38,134.88c.23-.79.49-1.32.49-1.94q-.89.34-.49,1.94ZM44.3,135.14c-.12.39-.49.74-.32,1.19.05.12.22.07.3,0,.42-.36.11-.77.02-1.19ZM45.98,130.59c-.49-.21-.99-.3-1.53-.23.47.3.99.34,1.53.23ZM42.08,131.21c.19-.17.19-.38.15-.56-.04-.18.15-.47-.21-.56-.1.39-.1.74.06,1.11ZM43.06,138.37s.09.04.13.06l.25-.87s-.03-.01-.05-.02c-.11.28-.22.55-.33.83Z"/>
    <path class="cls-1" d="M24.1,128.66c-.67.3-.99.86-1.32,1.39-.25.4-.51.43-.88.25-.21-.1-.44-.19-.64-.31-1-.59-1.07-.94-.38-1.84,1.48-1.95,2.95-3.91,4.43-5.86.75-.98,1.05-1,2.05-.31.81.56,1.62,1.14,2.47,1.64.65.38.94.89.99,1.63.13,2.14-.61,3.17-2.73,3.59-1.1.22-.97.09-.96,1.18,0,.83.09,1.66.12,2.49.03.76-.22.95-.89.6-2.27-1.16-2.11-.54-2.05-3.22,0-.39.11-.78-.21-1.23ZM26.75,126.38c.33.14.67.2,1.03.14.25-.05.44-.18.49-.44.07-.41-.02-.77-.38-1.04-.38-.28-.77-.61-1.27-.37-.38.19-.74.54-.8.95-.07.42.45.46.72.65.06.05.14.07.21.1ZM26.55,129.12c-.23,1.28-.21,2.34-.18,3.39,0,.24.14.37.37.35.22-.03.17-.25.15-.38-.14-1.04,0-2.1-.34-3.36ZM30.2,124.71c-.02.82.12,1.65-.07,2.46.35-.81.36-1.63.07-2.46ZM23.31,128.47c.37.11.57-.32.87-.19.12.05.32.14.38-.09.02-.1-.01-.23-.07-.32-.12-.17-.29-.26-.5-.17-.31.14-.38.49-.68.77ZM26.2,122.04c.33.05.51.56.96.32-.24-.32-.55-.44-.96-.32ZM26.32,126.63c.19.15.39.23.63.22-.18-.17-.39-.21-.63-.22ZM29.54,123.98c-.05-.06-.09-.14-.15-.15-.12-.03-.31-.22-.35-.02-.02.1.27.25.49.17Z"/>
    <path class="cls-1" d="M29.36,131.14c.7-1.93,1.59-3.37,3.34-4.11,1.92-.81,4.13.25,4.65,2.28.27,1.05.27,2.12.06,3.17-.45,2.23-2.62,3.93-4.89,3.9-2.15-.03-3.8-2-3.44-4.12.08-.47.22-.92.27-1.12ZM31.68,131.03c-.18.52-.34.97-.3,1.45.07.89.59,1.25,1.45,1.01,1.4-.39,2.13-1.45,2-2.93-.05-.52-.15-1.01-.75-1.22-.56-.19-1.06-.17-1.53.26-.46.42-.73.92-.86,1.43ZM34.4,135.46c2-.79,3.04-2.62,2.6-4.63-.46,1.88-1.1,3.5-2.6,4.63ZM33.04,133.91c-.8.14-1.49.03-2.03-.65.27,1.2.75,1.35,2.03.65ZM30.61,135.13c.38.57.94.8,1.84.88-.67-.52-1.24-.72-1.84-.88ZM34.16,128.55c.08.3.28.42.5.5.1.03.14-.04.11-.12-.08-.25-.25-.38-.62-.37Z"/>
    <path class="cls-1" d="M51.69,138.93c-.18.58-.43.96-.94.94-.58-.01-1.21.14-1.69-.34-.18-.18-.16-.46-.13-.68.31-2.4.16-4.82.37-7.23.12-1.3,1-1.85,2.22-1.39.2.08.32.23.37.43.04.15.06.32.05.47-.22,2.41-.24,4.82-.18,7.24,0,.23-.07.47-.08.56ZM49.82,130.79c.57.37,1.08.06,1.5.32.1.06.19-.07.21-.19.02-.13-.06-.26-.16-.27-.47-.05-.97-.23-1.55.14ZM51.21,139.12c.2-.49.16-.75.04-1.05-.19.34-.05.62-.04,1.05Z"/>
    <path class="cls-1" d="M11.21,122.59c-.44-.31-.84-.63-.61-1.26.34.36.62.74.61,1.26Z"/>
  </g>
</svg>