<?xml version="1.0" encoding="UTF-8"?>
<svg id="_레이어_1" data-name="레이어 1" xmlns="http://www.w3.org/2000/svg" viewBox="0 0 120 50">
  <defs>
    <style>
      .cls-1 {
        fill: red;
      }

      .cls-1, .cls-2 {
        stroke-width: 0px;
      }

      .cls-2 {
        fill: #fff;
      }
    </style>
  </defs>
  <rect class="cls-1" x="-49" y="-44" width="182" height="152"/>
  <g>
    <path class="cls-2" d="M9.26,28.99h-4.36v10.53H.34V11.28h11.66c6.13,0,9.6,3.63,9.6,8.95,0,4.64-2.62,7.66-7.1,8.51l8.43,10.77h-5.61l-8.07-10.53ZM4.9,24.95h6.62c3.75,0,5.49-1.94,5.49-4.68s-1.78-4.64-5.49-4.64h-6.62v9.32Z"/>
    <path class="cls-2" d="M32.05,15.64v7.3h12.87v4.36h-12.87v7.87h13.88v4.36h-18.43V11.28h18.43v4.36h-13.88Z"/>
    <path class="cls-2" d="M71.91,31.41c0,6.17-5.49,8.59-10.53,8.59-7.91,0-11.38-4.36-12.14-9.24h4.6c.85,3.27,3.03,4.96,7.5,4.96,3.79,0,5.97-1.49,5.97-4.11s-2.3-3.07-7.54-4.24c-5.49-1.21-9.76-2.74-9.76-8.03,0-5.61,4.96-8.55,10.37-8.55,7.1,0,10.37,3.67,11.17,8.15h-4.6c-.81-2.34-2.74-3.87-6.54-3.87s-5.85,1.69-5.85,4.15c0,2.02,1.61,2.66,6.29,3.67,7.14,1.57,11.05,3.07,11.05,8.51Z"/>
    <path class="cls-2" d="M81.43,15.64v7.3h12.87v4.36h-12.87v7.87h13.88v4.36h-18.44V11.28h18.44v4.36h-13.88Z"/>
    <path class="cls-2" d="M120,15.64h-8.63v23.88h-4.56V15.64h-8.59v-4.36h21.78v4.36Z"/>
  </g>
</svg>