<?xml version="1.0" encoding="UTF-8"?>
<svg id="_레이어_1" data-name="레이어 1" xmlns="http://www.w3.org/2000/svg" viewBox="0 0 120 50">
  <defs>
    <style>
      .cls-1 {
        fill: red;
      }

      .cls-1, .cls-2 {
        stroke-width: 0px;
      }

      .cls-2 {
        fill: #fff;
      }
    </style>
  </defs>
  <rect class="cls-2" x="-7" y="-48" width="182" height="152"/>
  <g>
    <path class="cls-1" d="M27.46,32.46c0,7.38-6.56,10.28-12.6,10.28-9.46,0-13.61-5.21-14.53-11.05h5.5c1.01,3.91,3.62,5.94,8.98,5.94,4.54,0,7.14-1.79,7.14-4.92s-2.75-3.67-9.03-5.07c-6.56-1.45-11.68-3.28-11.68-9.61,0-6.71,5.94-10.23,12.41-10.23,8.49,0,12.41,4.39,13.37,9.75h-5.5c-.97-2.8-3.28-4.63-7.82-4.63s-7,2.03-7,4.97c0,2.41,1.93,3.19,7.53,4.39,8.54,1.88,13.23,3.67,13.23,10.19Z"/>
    <path class="cls-1" d="M54.25,33.09h-14.67l-3.43,9.08h-5.79l13.08-33.79h6.95l13.08,33.79h-5.79l-3.43-9.08ZM52.27,27.92l-5.36-14.14-5.36,14.14h10.72Z"/>
    <path class="cls-1" d="M92.48,8.37l-11.63,33.79h-6.95l-11.58-33.79h5.79l9.27,27.51,9.32-27.51h5.79Z"/>
    <path class="cls-1" d="M103.4,13.59v8.74h15.4v5.21h-15.4v9.41h16.6v5.21h-22.06V8.37h22.06v5.21h-16.6Z"/>
  </g>
</svg>